<svg width="24" height="24" viewBox="0 0 24 24" fill="none" xmlns="http://www.w3.org/2000/svg">
<mask id="path-1-inside-1" fill="white">
<path d="M22.4025 15.576C21.6415 17.7897 20.1942 19.7029 18.271 21.0374C16.3479 22.3719 14.0491 23.0581 11.7091 22.9962C9.36913 22.9343 7.10989 22.1275 5.25995 20.6932C3.41002 19.2589 2.06587 17.2719 1.42299 15.0211L5.98665 13.7176C6.35215 14.9972 7.11634 16.1269 8.16808 16.9423C9.21982 17.7578 10.5043 18.2164 11.8346 18.2516C13.165 18.2868 14.4719 17.8967 15.5653 17.138C16.6587 16.3793 17.4815 15.2916 17.9141 14.0331L22.4025 15.576Z"/>
</mask>
<path d="M22.4025 15.576C21.6415 17.7897 20.1942 19.7029 18.271 21.0374C16.3479 22.3719 14.0491 23.0581 11.7091 22.9962C9.36913 22.9343 7.10989 22.1275 5.25995 20.6932C3.41002 19.2589 2.06587 17.2719 1.42299 15.0211L5.98665 13.7176C6.35215 14.9972 7.11634 16.1269 8.16808 16.9423C9.21982 17.7578 10.5043 18.2164 11.8346 18.2516C13.165 18.2868 14.4719 17.8967 15.5653 17.138C16.6587 16.3793 17.4815 15.2916 17.9141 14.0331L22.4025 15.576Z" stroke="url(#paint0_linear)" stroke-width="8" mask="url(#path-1-inside-1)"/>
<mask id="path-2-inside-2" fill="white">
<path d="M4.96065 3.54733C6.78202 2.0305 9.04462 1.14257 11.4115 1.01575C13.7784 0.888943 16.1229 1.53004 18.0959 2.84357C20.0689 4.15711 21.5649 6.0728 22.361 8.30537C23.1571 10.5379 23.2108 12.9679 22.514 15.2335L17.9775 13.8383C18.3737 12.5503 18.3431 11.1688 17.8905 9.89949C17.4379 8.63021 16.5874 7.54108 15.4657 6.7943C14.344 6.04752 13.011 5.68303 11.6654 5.75513C10.3198 5.82723 9.03342 6.33204 7.99792 7.19441L4.96065 3.54733Z"/>
</mask>
<path d="M4.96065 3.54733C6.78202 2.0305 9.04462 1.14257 11.4115 1.01575C13.7784 0.888943 16.1229 1.53004 18.0959 2.84357C20.0689 4.15711 21.5649 6.0728 22.361 8.30537C23.1571 10.5379 23.2108 12.9679 22.514 15.2335L17.9775 13.8383C18.3737 12.5503 18.3431 11.1688 17.8905 9.89949C17.4379 8.63021 16.5874 7.54108 15.4657 6.7943C14.344 6.04752 13.011 5.68303 11.6654 5.75513C10.3198 5.82723 9.03342 6.33204 7.99792 7.19441L4.96065 3.54733Z" stroke="url(#paint1_linear)" stroke-width="8" mask="url(#path-2-inside-2)"/>
<mask id="path-3-inside-3" fill="white">
<path d="M1.34566 14.7359C0.841892 12.7741 0.889572 10.7112 1.48344 8.77478C2.07732 6.83833 3.19432 5.10344 4.71133 3.76135L7.85618 7.31608C6.99371 8.0791 6.35866 9.06544 6.02103 10.1664C5.68339 11.2673 5.65628 12.4401 5.94269 13.5554L1.34566 14.7359Z"/>
</mask>
<path d="M1.34566 14.7359C0.841892 12.7741 0.889572 10.7112 1.48344 8.77478C2.07732 6.83833 3.19432 5.10344 4.71133 3.76135L7.85618 7.31608C6.99371 8.0791 6.35866 9.06544 6.02103 10.1664C5.68339 11.2673 5.65628 12.4401 5.94269 13.5554L1.34566 14.7359Z" stroke="url(#paint2_linear)" stroke-width="8" mask="url(#path-3-inside-3)"/>
<defs>
<linearGradient id="paint0_linear" x1="12" y1="1" x2="12" y2="23" gradientUnits="userSpaceOnUse">
<stop offset="0.472727" stop-color="#6489FA"/>
</linearGradient>
<linearGradient id="paint1_linear" x1="12" y1="1" x2="12" y2="23" gradientUnits="userSpaceOnUse">
<stop offset="0.472727" stop-color="#FA7864"/>
</linearGradient>
<linearGradient id="paint2_linear" x1="12" y1="1" x2="12" y2="23" gradientUnits="userSpaceOnUse">
<stop offset="0.472727" stop-color="#FAA264"/>
</linearGradient>
</defs>
</svg>
